<svg width="40" height="40" viewBox="0 0 40 40" fill="none" xmlns="http://www.w3.org/2000/svg">
<path d="M36.6667 26.9833C36.6667 33.05 33.05 36.6666 26.9833 36.6666H25C24.0833 36.6666 23.3333 35.9166 23.3333 35V25.3833C23.3333 24.9333 23.7 24.55 24.15 24.55L27.0833 24.5C27.3167 24.4833 27.5167 24.3167 27.5667 24.0833L28.15 20.9C28.2 20.6 27.9667 20.3166 27.65 20.3166L24.1 20.3666C23.6333 20.3666 23.2667 20 23.25 19.55L23.1833 15.4666C23.1833 15.2 23.4 14.9667 23.6833 14.9667L27.6833 14.9C27.9667 14.9 28.1833 14.6833 28.1833 14.4L28.1167 10.4C28.1167 10.1166 27.9 9.89998 27.6167 9.89998L23.1167 9.96666C20.35 10.0167 18.15 12.2833 18.2 15.05L18.2833 19.6333C18.3 20.1 17.9334 20.4667 17.4667 20.4833L15.4667 20.5166C15.1833 20.5166 14.9667 20.7333 14.9667 21.0166L15.0167 24.1833C15.0167 24.4667 15.2333 24.6833 15.5167 24.6833L17.5167 24.65C17.9834 24.65 18.35 25.0166 18.3667 25.4666L18.5167 34.9667C18.5333 35.9 17.7833 36.6666 16.85 36.6666H13.0167C6.95001 36.6666 3.33334 33.05 3.33334 26.9666V13.0166C3.33334 6.94998 6.95001 3.33331 13.0167 3.33331H26.9833C33.05 3.33331 36.6667 6.94998 36.6667 13.0166V26.9833V26.9833Z" fill="white"/>
</svg>
