<svg width="40" height="40" viewBox="0 0 40 40" fill="none" xmlns="http://www.w3.org/2000/svg">
<path d="M26.9833 3.33331H13.0166C6.94998 3.33331 3.33331 6.94998 3.33331 13.0166V26.9666C3.33331 33.05 6.94998 36.6666 13.0166 36.6666H26.9666C33.0333 36.6666 36.65 33.05 36.65 26.9833V13.0166C36.6666 6.94998 33.05 3.33331 26.9833 3.33331ZM20 26.4666C16.4333 26.4666 13.5333 23.5666 13.5333 20C13.5333 16.4333 16.4333 13.5333 20 13.5333C23.5666 13.5333 26.4666 16.4333 26.4666 20C26.4666 23.5666 23.5666 26.4666 20 26.4666ZM29.8666 11.4666C29.7833 11.6666 29.6666 11.85 29.5166 12.0166C29.35 12.1666 29.1666 12.2833 28.9666 12.3666C28.7666 12.45 28.55 12.5 28.3333 12.5C27.8833 12.5 27.4666 12.3333 27.15 12.0166C27 11.85 26.8833 11.6666 26.8 11.4666C26.7166 11.2666 26.6666 11.05 26.6666 10.8333C26.6666 10.6166 26.7166 10.4 26.8 10.2C26.8833 9.98331 27 9.81665 27.15 9.64998C27.5333 9.26665 28.1166 9.08331 28.65 9.19998C28.7666 9.21665 28.8666 9.24998 28.9666 9.29998C29.0666 9.33331 29.1666 9.38331 29.2666 9.44998C29.35 9.49998 29.4333 9.58331 29.5166 9.64998C29.6666 9.81665 29.7833 9.98331 29.8666 10.2C29.95 10.4 30 10.6166 30 10.8333C30 11.05 29.95 11.2666 29.8666 11.4666Z" fill="white"/>
</svg>
