<svg width="40" height="40" viewBox="0 0 40 40" fill="none" xmlns="http://www.w3.org/2000/svg">
<path d="M36.6333 19.0167C36.0666 9.35004 27.2833 1.90006 17.1666 3.56673C10.2 4.71673 4.61665 10.3667 3.53331 17.3334C2.89998 21.3667 3.73335 25.1834 5.55002 28.3334L4.06666 33.85C3.73332 35.1 4.88329 36.2334 6.11663 35.8834L11.55 34.3834C14.0166 35.8334 16.9 36.6667 19.9833 36.6667C29.3833 36.6667 37.1833 28.3834 36.6333 19.0167ZM28.1333 26.2C27.9833 26.5 27.8 26.7834 27.5666 27.0501C27.15 27.5001 26.6999 27.8334 26.1999 28.0334C25.6999 28.25 25.15 28.3501 24.5666 28.3501C23.7166 28.3501 22.8 28.1501 21.85 27.7334C20.8833 27.3167 19.9333 26.7667 18.9833 26.0834C18.0167 25.3834 17.1167 24.6 16.25 23.75C15.3833 22.8834 14.6166 21.9667 13.9166 21.0167C13.2333 20.0667 12.6833 19.1167 12.2833 18.1667C11.8833 17.2167 11.6833 16.3 11.6833 15.4334C11.6833 14.8667 11.7833 14.3167 11.9833 13.8167C12.1833 13.3 12.5 12.8334 12.95 12.4167C13.4834 11.8834 14.0666 11.6334 14.6833 11.6334C14.9166 11.6334 15.1499 11.6834 15.3666 11.7834C15.5833 11.8834 15.7833 12.0334 15.9333 12.25L17.8666 14.9834C18.0166 15.2 18.1333 15.3834 18.2 15.5667C18.2833 15.75 18.3166 15.9167 18.3166 16.0834C18.3166 16.2834 18.25 16.4834 18.1333 16.6834C18.0167 16.8834 17.8666 17.0834 17.6666 17.2834L17.0333 17.95C16.9333 18.05 16.9 18.15 16.9 18.2834C16.9 18.35 16.9166 18.4167 16.9333 18.4834C16.9666 18.55 16.9833 18.6 17 18.65C17.15 18.9334 17.4166 19.2833 17.7833 19.7167C18.1666 20.15 18.5667 20.6 19 21.0334C19.45 21.4834 19.8833 21.8833 20.3333 22.2667C20.7667 22.6333 21.1333 22.8834 21.4166 23.0334C21.4666 23.05 21.5167 23.0833 21.5667 23.1C21.6333 23.1333 21.7 23.1334 21.7833 23.1334C21.9333 23.1334 22.0334 23.0834 22.1334 22.9834L22.7666 22.35C22.9833 22.1334 23.1834 21.9834 23.3667 21.8834C23.5667 21.7667 23.75 21.7 23.9667 21.7C24.1333 21.7 24.3 21.7334 24.4833 21.8167C24.6667 21.9 24.8666 22 25.0666 22.15L27.8333 24.1167C28.05 24.2667 28.2 24.45 28.3 24.65C28.3833 24.8667 28.4333 25.0667 28.4333 25.3C28.3333 25.5834 28.2667 25.9 28.1333 26.2Z" fill="white"/>
</svg>
